<svg width="59" height="107" viewBox="0 0 59 107" fill="none" xmlns="http://www.w3.org/2000/svg">
<path d="M4.77555 72.2483L4.79076 72.2206L4.91247 72.0468L5.03414 71.9243L5.1467 71.7385L5.23492 71.5133L5.30795 71.0785L5.29579 71.0469L5.31708 70.7148L5.37427 70.618L5.46918 70.5646L5.70648 70.442L5.85554 70.0584L5.94035 69.9113L6.0411 69.8726L6.10498 69.8844L6.14757 69.9227L6.23278 69.9517L6.27232 69.9042L6.2952 69.7728L6.27865 69.6848L6.28449 69.5206L6.33925 69.3624L6.34095 69.2697L6.37794 69.095L6.52788 68.773L6.61841 68.4911L6.61884 68.4899L6.71649 68.1913L6.70736 68.0766L6.826 67.8946L7.04198 67.7679L7.19408 67.5977L7.16986 67.5718L7.15453 67.5661L7.48005 67.1979L8.47177 66.6912L8.17658 66.4706L8.52044 66.2438L8.92202 65.9349L9.4909 65.4478L10.0213 64.9603L10.4056 64.7161L10.7503 64.6L10.9694 64.5683L11.3818 64.5537L11.8776 64.6091L12.5534 64.583L13.3969 64.3787L13.6526 64.2988L14.0785 64.1205L14.401 63.9302L14.8603 63.4903L15.0429 63.3436L15.2345 63.2921L16.2172 63.2643L16.3784 63.2048L16.4696 63.1176L16.5366 63.0463L16.7435 62.7291L16.8225 62.5705L16.9108 62.1105L16.8438 61.9042L16.7617 61.7218L16.6948 61.4957L16.6613 61.2339L16.6735 60.7102L16.7404 60.4205L16.8438 60.2499L16.9412 60.1546L17.1754 59.984L17.5131 59.7895L17.9512 59.6267L18.1063 59.595L18.6113 59.3806L19.0068 58.9081L19.2441 58.4316L19.3718 58.2569L19.6061 58.094L20.3301 57.8359L20.464 57.7644L20.5613 57.6929L21.1089 57.1288L21.2914 56.9142L21.5713 56.6758L22.4931 56.0995L22.8642 55.8928L23.0741 55.8014L23.211 55.7855L23.4817 55.8332L23.5699 55.8213L24.2149 55.5987L24.4461 55.4794L24.945 55.3442L25.0332 55.2846L25.0667 55.2369L25.1153 55.0818L25.167 54.9824L25.2309 54.9108L25.3313 54.8393L25.5656 54.7279L25.7298 54.6007L25.8181 54.4814L25.888 54.1711L26.0219 53.829L26.098 53.6858L26.2075 53.5744L26.3079 53.5426L26.39 53.5386L26.4965 53.5665L26.8676 53.7296L27.2296 53.8251L27.3391 53.829L27.4304 53.8091L27.8142 53.4775L28.0157 53.3424L28.1368 53.283L28.2457 53.2561L28.5316 53.276L28.6229 53.2681L28.6928 53.2362L29.1474 52.827L29.1887 52.7667L29.2404 52.6473L29.2708 52.4961L29.2739 52.313L29.2495 52.2254L28.8997 51.6721L28.7963 51.5487L28.5864 51.4133L28.3552 51.3217L28.2761 51.2461L28.2365 51.1864L28.197 51.0788L28.0844 50.7005L27.8928 50.35L27.7863 50.0792L27.7573 50.0437L27.4578 49.8003L27.0288 49.4856L26.2926 49.123L26.1588 49.0034L25.7816 48.8161L25.599 48.6447L25.4682 48.3139L25.2705 47.8794L25.1671 47.5724L25.0459 47.2862L24.9181 47.043L24.8111 46.8626L24.4339 46.4478L24.2362 46.2603L24.0993 46.1526L23.9533 46.0688L23.7434 46.0488L23.5913 45.997L23.3144 45.7776L23.0285 45.4983L22.8368 45.3506L22.6361 45.1551L22.5124 44.9732L22.4725 44.7829L22.4446 44.3847L22.3619 44.0868L22.2106 43.6351L21.8973 42.8697L21.8513 42.7862L21.7269 42.689L21.3273 42.5028L21.2442 42.4428L21.1397 42.3294L20.9123 42.2593L20.8431 42.2766L20.7001 42.3662L20.2782 42.4946L20.0484 42.5418L19.9407 42.5247L19.6882 42.4084L19.5351 42.2846L19.4919 42.2163L19.3884 42.1289L19.0955 42.038L19.0119 41.9581L18.9316 41.767L18.888 41.3451L18.751 40.7489L18.6554 40.4754V40.4281L18.7548 40.084L18.732 39.9391L18.7403 39.7692L18.8453 39.6105L18.9091 39.4267L18.918 39.2279L18.9047 39.0148L18.8164 38.495L18.7943 38.2536L18.7988 37.9023L18.822 37.6361L18.7821 37.2205L18.7561 37.0983L18.7148 36.9927L18.414 36.7496L17.8909 36.1048L17.7502 35.9682L17.4284 35.8537L17.2341 35.7519L16.6422 35.651L16.4853 35.6694L16.3192 35.7543L15.9822 36.0693L15.8476 36.117L15.673 36.1164L15.4693 36.0809L15.2306 35.9865L15.1216 35.9043L14.9507 35.7101L14.8992 35.63L14.8741 35.5365L14.8667 35.4925L14.8807 35.4023L14.9981 35.2062L15.0179 35.0651L14.9526 34.5717L14.8421 34.4069L14.8154 34.3351L14.7638 34.2184L14.6771 34.0927L14.663 33.9902L14.6966 33.9433L14.7823 33.9042L15.0013 33.8792L15.0441 33.8177L15.0655 33.692L14.9901 33.1571L14.9531 33.0436L14.9161 32.9846L14.7039 32.7992L14.7043 32.7062L14.8192 32.4695L14.9964 32.1962L15.085 32.1211L15.2427 32.0345L15.4028 31.7688L15.4237 31.6437L15.3999 31.5628L15.3093 31.4973L15.1891 31.473L15.0047 31.4967L14.8118 31.4197L14.6901 31.2512L14.5989 31.0105L14.757 30.4568L14.8878 30.1069L14.9428 30.0324L15.0402 29.9483L15.1327 29.7075L15.2504 29.4685L15.2631 29.4043L15.2412 29.3189L15.1507 29.1737L14.8596 28.8442L14.8299 28.7774L14.8136 28.6585L14.8236 28.5969L14.9677 28.4283L15.2341 28.2872L15.3557 28.1847L15.4032 28.0912L15.4222 27.9106L15.4597 27.7418L15.5288 27.613L15.5824 27.5481L15.6452 27.5189L15.8239 27.5224L16.258 27.667L16.5705 27.7144L16.7136 27.708L16.747 27.6936L16.8029 27.6202L16.9732 27.2958L17.0577 27.1865L17.2478 27.0819L17.415 27.0599L17.5014 27.0118L17.7357 26.6621L17.7517 26.6067L17.7551 26.5334L17.7376 26.4334L17.7517 26.3494L17.8124 26.2406L17.8773 26.1632L18.0485 26.0144L18.2046 25.7708L18.249 25.6704L18.2522 25.5364L18.2007 25.4447L17.914 25.1625L17.8512 25.0727L17.8339 25.0072L17.8335 24.9237L17.8446 24.8582L17.8883 24.7613L18.035 24.6766L18.4694 24.649L18.5649 24.6866L18.6474 24.7488L18.7939 24.7408L18.8452 24.7108L18.9619 24.5225L19.1809 24.2458L19.2498 24.014L19.2556 23.9173L19.2352 23.8305L19.1696 23.6923L19.0178 23.5316L18.9115 23.3451L18.8115 23.2086L18.5534 22.9473L18.5102 22.8673L18.4915 22.8057L18.5149 22.6262L18.4874 22.349L18.4611 22.2347L18.3904 22.0733L17.8962 21.6602L17.8294 21.5585L17.592 21.1713L17.5729 21.0353L17.4047 20.6954L17.2197 20.4976L17.185 20.3631L17.1549 20.1503L17.1421 20.1106L17.1319 20.0543L17.1587 19.9543L17.1385 19.8821L17.0725 19.8076L16.8757 19.855L16.806 19.8428L16.7325 19.7745L16.6794 19.6603L16.6795 19.5371L16.7536 19.4036L16.7834 19.3074L16.8009 19.2128L16.7982 19.0521L16.83 18.9638L16.9328 18.8485L17.0476 18.7608L17.4378 18.5172L17.4828 18.4394L17.7393 18.3341L17.8953 18.2471L18.0548 18.0686L18.0708 18.0183L18.335 17.926L18.5206 17.9142L18.6565 17.8542L19.565 17.3245L19.7527 17.1229L19.8682 17.0559L20.0179 16.9998L20.0285 16.9634L19.9997 16.8129L20.0202 16.7306L20.2184 16.469L20.2777 16.3672L20.3194 16.2575L20.3375 16.1363L20.4197 15.9319L20.4634 15.8818L20.6081 15.8808L20.8137 15.6227L20.9588 15.5173L21.1266 15.4461L21.3317 15.4117L21.6846 15.1647L21.7637 15.0636L21.8133 14.8365L21.7918 14.7597L21.7319 14.7295L21.6527 14.7502L21.5535 14.8103L21.3705 14.9803L21.265 15.0334L21.1591 15.0465L21.0755 15.0321L21.0511 15.0097L21.054 14.8825L21.3432 14.2382L21.4143 14.1503L21.6259 14.033L21.7356 14.0111L21.8273 14.0192L21.8882 13.9963L22.3866 13.6198L22.4042 13.5843L22.3926 13.5095L22.4731 13.398L22.8968 13.2229L23.1393 13.0307L23.6842 12.3229L23.7899 12.0915L23.8084 11.9915L23.8532 11.8981L24.1658 11.5983L24.3874 11.3058L24.4983 11.0363L24.5049 10.9157L24.6339 10.5901L24.8392 10.1772L25.0487 9.82541L25.072 9.75978L25.0814 9.70194L25.0354 9.62874L24.8528 9.4448L24.8356 9.4082L24.8728 9.23176L24.9985 9.01021L25.0098 8.84977L25.1475 8.55038L25.1824 8.50511L25.223 8.48828L25.3959 8.46068L25.4584 8.37466L25.4903 8.30883L25.5162 8.18298L25.4713 8.0405L25.477 7.97975L25.6347 7.65991L25.719 7.40467L25.8497 7.24984L25.9717 7.00335L26.2203 6.7346L26.4084 6.64096L26.52 6.55973L26.6774 6.35735L27.1124 6.05473L27.1297 6.01378L27.1179 5.9146L27.0131 5.73526L27.0369 5.65867L27.1259 5.57531L27.2178 5.54225L27.4463 5.50386L27.65 5.49993L27.7503 5.46942L27.8986 5.3285L27.9964 5.20656L28.093 4.85178L28.2254 4.66426L28.3085 4.61689L28.8444 4.60085L29.0041 4.62253L29.2916 4.56576L29.669 4.34896L29.7933 4.29591L29.9099 4.27525L30.0827 4.15894L31.7063 5.15345L32.7465 5.76531L36.0241 7.80707L37.3023 8.58073L39.6959 10.1675L41.4573 11.2429L42.0353 11.6389L44.0893 12.8394L45.6737 13.6992L48.2777 15.2251L48.4085 15.3018L49.9731 16.2221L49.9732 16.2221L53.9025 18.5525L54.0493 18.6662L54.1115 18.7019L54.1824 18.7137L54.4471 18.7178L54.371 19.3424L54.0425 20.559L53.79 21.6302L53.7261 21.8476L53.7193 21.9249L53.704 21.9289L53.6645 22.0899L53.3816 23.0518L53.2477 23.3536L53.1055 23.6505L52.7952 24.3061L52.6218 24.7244L52.3419 25.5727L52.1929 25.822L50.9426 28.1162L50.8026 28.3974L50.5796 29.5691L50.4753 30.2908L50.0496 30.2384L49.6649 30.8379L49.143 32.2594L48.5617 32.5249L48.3599 32.6868L46.8601 32.9995L45.7134 32.8159L45.563 32.8322L45.4694 32.9222L45.0703 33.4345L44.8645 35.6281L44.6881 36.2568L44.5847 36.3929L44.177 36.3128L43.6583 36.6973L43.5731 36.9896L43.7314 37.8436L43.0606 38.7141L42.9267 39.1462L43.0819 39.81L43.2553 40.0939L44.0219 40.3698L44.8402 40.7855L44.9497 41.0533L44.9427 41.13L44.8747 41.1807L44.9188 41.264L45.0732 41.1239L45.3233 41.0418L45.4023 40.962L45.5095 40.7855L45.9049 40.4577L45.9017 40.5023L45.8962 40.716L45.8424 40.7722L45.8879 40.8175L46.0513 40.6562L46.1415 40.7323L46.1664 40.7966L46.2322 40.7493L46.2539 40.7448L46.4221 40.8175L46.5491 40.7759L46.5772 40.788L46.5996 40.7593L46.8754 40.6656L46.9666 40.5456L47.0114 40.5032L47.0902 40.4741L47.154 40.4951L47.2328 40.5521L47.3444 40.6394L47.4288 40.6986L47.5008 40.7515L47.667 40.839L48.5424 41.1452L48.9044 41.3331L49.4277 41.7726L49.7653 41.9244L51.0278 42.2361L51.2674 42.244L51.3593 41.9019L51.475 40.9653L51.0371 40.0971L50.681 39.794L50.6769 39.7087L50.7951 39.6234L51.006 39.6704L51.3533 39.9339L51.8826 41.0732L51.9221 42.34L52.0925 43.8097V44.7558L51.9082 46.6964L51.7792 47.4925L51.426 49.1564L50.3038 53.7294L50.1852 54.513L50.2693 54.6153L50.2015 54.656L50.0228 55.375L49.271 59.4384L48.8721 62.1431L48.4554 66.5421L48.2691 67.8141L48.2741 68.0047L48.2128 68.1429L48.1361 68.276L47.7646 68.8875L46.9104 70.9155L45.4125 73.4569L43.9058 76.2282L43.6461 76.5011L42.7844 77.8394L42.3383 78.3L42.019 78.3871L41.9451 78.1169L41.7602 78.1291L41.6796 78.6354L41.8422 79.0267L41.9506 79.0661L42.0295 79.2242L41.9639 79.5194L41.0372 81.0733L40.0582 82.2539L38.8504 83.2183L38.8474 83.36L38.8034 83.708L38.6679 83.8755L37.232 84.497L35.3489 85.724L34.456 86.5212L34.3864 86.7815L34.1577 87.1053L33.5478 87.4141L33.0333 87.8843L32.5295 88.4418L31.8656 89.3775L31.5526 89.7242L31.4051 90.2512L30.7971 90.9882L29.4918 93.3417L29.462 93.4558L29.498 93.5445L29.7939 93.81L29.7493 94.0029L28.7625 95.1085L27.5316 97.1318L27.3011 98.0307L27.1074 98.3486L26.6452 98.5851L26.2973 98.8413L25.3423 99.8141L24.9252 100.367L24.9027 100.326L24.7415 100.244L24.3822 100.314L23.6296 100.696L23.2231 100.808L22.8228 100.832L21.9135 100.727L21.7976 100.64L21.654 100.368L22.1599 97.9857L22.3392 97.423L22.6784 96.6575L23.7326 94.6104L23.9115 94.1646L24.0708 93.6012L24.2726 92.4074L24.2344 91.8112L23.6865 91.1787L21.9464 90.5786L21.5241 90.4988L20.8629 90.5387L20.0057 90.4458L19.9234 90.4089L19.9557 90.2157L20.0846 90.0936L20.0891 90.0073L19.9997 89.8087L19.7169 89.5902L19.5347 89.5865L19.3481 89.736L19.2103 89.6611L18.9006 89.6629L18.1739 89.8751L17.7291 89.7378L17.5384 89.7478L17.3115 89.8989L16.9366 90.5971L16.6483 91.0029L16.5696 90.9796L15.753 90.1231L15.7889 89.5435L15.6172 88.8352L15.4024 88.5169L15.2343 88.3648L14.9656 88.4009L14.8168 87.9869L14.5399 87.7363L14.3375 87.7309L13.4514 87.2853L13.3779 87.1441L13.4137 87.0307L13.3688 86.8293L13.1422 86.2706L12.5392 86.1083L12.2048 86.3043L12.1223 86.5733L12.0138 86.6777L11.4933 86.1999L11.2137 85.8507L10.8623 84.9904L10.8407 84.723L10.6497 84.4845L10.3994 84.3522L9.98604 84.3866L9.69833 84.6397L8.93741 83.9761L8.80657 83.7599L8.78072 83.4591L8.6553 83.1406L7.96187 82.8639L7.66668 82.663L7.34453 82.2432L6.65038 80.8004L6.31373 80.832L6.09187 80.7258L5.4196 80.249L5.33713 80.0046L4.48391 79.9483L4.28731 79.5587L4.24247 79.1979L4.29342 78.5292L4.7377 78.4682L4.76651 78.3894L4.69877 78.3454L4.67528 78.182L4.68021 77.9674L4.78133 77.3435L4.77728 77.1541L4.75024 77.0027L4.63163 76.9417L4.55744 76.7888L4.6083 76.6871L4.80113 76.4816L5.01337 76.2089L5.14326 75.9244L5.22917 75.7269L5.20483 75.3171L5.1289 75.2085L4.99506 75.11L4.93519 75.1163L4.81105 75.0784L4.64507 74.9231L4.54335 74.8283L4.46012 74.7273L4.38933 74.6757L4.37689 74.6704L4.25473 74.6066L4.21092 74.5757L3.96461 74.3697L3.89258 74.2188L3.8663 74.1847L3.84293 74.0861L3.86191 73.9692L3.81422 73.7658L3.77869 73.4928L3.79426 73.3013L3.7838 73.2715L3.88114 73.07L4.05152 72.9515L4.15641 72.8482L4.31313 72.6316L4.39831 72.6276L4.52306 72.5841L4.77859 72.272L4.77555 72.2483Z" stroke="#22D3EE" stroke-width="7"/>
</svg>
